<?xml version="1.0" encoding="UTF-8" standalone="no"?>
<svg
   xmlns:dc="http://purl.org/dc/elements/1.1/"
   xmlns:cc="http://creativecommons.org/ns#"
   xmlns:rdf="http://www.w3.org/1999/02/22-rdf-syntax-ns#"
   xmlns:svg="http://www.w3.org/2000/svg"
   xmlns="http://www.w3.org/2000/svg"
   xmlns:sodipodi="http://sodipodi.sourceforge.net/DTD/sodipodi-0.dtd"
   xmlns:inkscape="http://www.inkscape.org/namespaces/inkscape"
   viewBox="0 0 75.708535 61.797108"
   height="61.797108"
   width="75.708534"
   xml:space="preserve"
   id="svg2"
   version="1.1"
   sodipodi:docname="02_foregroundAnimals_racoon.svg"
   inkscape:version="0.92.5 (2060ec1f9f, 2020-04-08)"><sodipodi:namedview
     pagecolor="#ffffff"
     bordercolor="#666666"
     borderopacity="1"
     objecttolerance="10"
     gridtolerance="10"
     guidetolerance="10"
     inkscape:pageopacity="0"
     inkscape:pageshadow="2"
     inkscape:window-width="1920"
     inkscape:window-height="1016"
     id="namedview174"
     showgrid="false"
     inkscape:zoom="2.3787285"
     inkscape:cx="89.91266"
     inkscape:cy="-26.828772"
     inkscape:window-x="0"
     inkscape:window-y="27"
     inkscape:window-maximized="1"
     inkscape:current-layer="g12" /><metadata
     id="metadata8"><rdf:RDF><cc:Work
         rdf:about=""><dc:format>image/svg+xml</dc:format><dc:type
           rdf:resource="http://purl.org/dc/dcmitype/StillImage" /></cc:Work></rdf:RDF></metadata><defs
     id="defs6"><clipPath
       id="clipPath18"
       clipPathUnits="userSpaceOnUse"><path
         id="path16"
         d="M 0,595.276 H 841.89 V 0 H 0 Z"
         inkscape:connector-curvature="0" /></clipPath><clipPath
       id="clipPath50"
       clipPathUnits="userSpaceOnUse"><path
         id="path48"
         d="M 326.329,305.314 H 358.26 V 255.055 H 326.329 Z"
         inkscape:connector-curvature="0" /></clipPath><clipPath
       id="clipPath146"
       clipPathUnits="userSpaceOnUse"><path
         id="path144"
         d="m 298.399,332.09 h 18.88 v -37.111 h -18.88 z"
         inkscape:connector-curvature="0" /></clipPath><clipPath
       id="clipPath162"
       clipPathUnits="userSpaceOnUse"><path
         id="path160"
         d="m 295.716,345.349 h 37.709 v -61.33 h -37.709 z"
         inkscape:connector-curvature="0" /></clipPath><clipPath
       id="clipPath234"
       clipPathUnits="userSpaceOnUse"><path
         id="path232"
         d="m 275.808,357.116 h 56.781 v -21.862 h -56.781 z"
         inkscape:connector-curvature="0" /></clipPath><clipPath
       id="clipPath302"
       clipPathUnits="userSpaceOnUse"><path
         id="path300"
         d="m 312.552,310.611 h 20.18 v -51.148 h -20.18 z"
         inkscape:connector-curvature="0" /></clipPath><clipPath
       id="clipPath326"
       clipPathUnits="userSpaceOnUse"><path
         id="path324"
         d="m 293.786,337.692 h 26.099 v -31.858 h -26.099 z"
         inkscape:connector-curvature="0" /></clipPath></defs><g
     transform="matrix(-1.3333333,0,0,-1.3333333,443.45172,508.80243)"
     id="g10"><g
       id="g12"><g
         clip-path="url(#clipPath18)"
         id="g14"><g
           transform="translate(302.0533,328.8374)"
           id="g20" /><g
           transform="translate(289.9155,318.7896)"
           id="g24" /><g
           transform="translate(302.3268,330.7646)"
           id="g28" /><g
           transform="translate(290.2521,310.7424)"
           id="g32" /><g
           transform="translate(291.0707,310.7953)"
           id="g36" /><g
           transform="translate(357.5441,260.6494)"
           id="g40" /><g
           id="g44"><g
             id="g46" /><g
             id="g58"><g
               style="opacity:0.44000202"
               id="g56"
               clip-path="url(#clipPath50)"><g
                 id="g54"
                 transform="translate(357.5441,260.6494)" /></g></g></g><g
           transform="translate(357.5441,260.6494)"
           id="g60" /><g
           transform="translate(354.6639,265.1549)"
           id="g64" /><g
           transform="translate(357.5441,260.6494)"
           id="g68" /><g
           transform="translate(333.2992,280.877)"
           id="g72" /><g
           transform="translate(327.5609,282.0986)"
           id="g76" /><g
           transform="translate(332.592,294.1061)"
           id="g80" /><g
           transform="translate(342.5656,280.4535)"
           id="g84" /><g
           transform="translate(335.985,261.6315)"
           id="g88" /><g
           transform="translate(344.8705,262.1467)"
           id="g92" /><g
           transform="translate(337.3322,283.4276)"
           id="g96" /><g
           transform="translate(330.1448,281.0706)"
           id="g100" /><g
           transform="translate(339.8197,277.2525)"
           id="g104" /><g
           transform="translate(332.498,273.7196)"
           id="g108" /><g
           transform="translate(343.7927,271.9402)"
           id="g112" /><g
           transform="translate(337.1766,266.0391)"
           id="g116" /><g
           transform="translate(348.5132,267.1801)"
           id="g120" /><g
           transform="translate(344.4248,260.0685)"
           id="g124" /><g
           transform="translate(298.5442,298.5311)"
           id="g128" /><g
           transform="translate(317.7818,315.075)"
           id="g132" /><g
           transform="translate(295.9998,318.2917)"
           id="g136" /><g
           id="g140"><g
             id="g142" /><g
             id="g154"><g
               style="opacity:0.58000201"
               id="g152"
               clip-path="url(#clipPath146)"><g
                 id="g150"
                 transform="translate(298.4747,317.971)" /></g></g></g><g
           id="g156"><g
             id="g158" /><g
             id="g170"><g
               style="opacity:0.44999701"
               id="g168"
               clip-path="url(#clipPath162)"><g
                 id="g166"
                 transform="translate(319.762,290.785)" /></g></g></g><g
           transform="translate(283.2946,367.322)"
           id="g172"><path
             id="path174"
             style="fill:#7a9c9c;fill-opacity:1;fill-rule:nonzero;stroke:none"
             d="m 0,0 c 3.467,-3.371 11.063,1.729 11.278,5.806 0.272,5.17 -5.416,6.94 -9.502,8.088 -3.699,1.044 -5.34,0.03 -4.903,-3.786 C -2.789,7.135 -2.329,2.268 0,0"
             inkscape:connector-curvature="0" /></g><g
           transform="translate(285.0702,381.2165)"
           id="g176"><path
             id="path178"
             style="fill:#8cb0b3;fill-opacity:1;fill-rule:nonzero;stroke:none"
             d="m 0,0 c -3.472,0.979 -5.132,0.145 -4.961,-3.124 0.413,1.017 0.673,2.258 2.033,2.588 2.297,0.552 5.973,-1.484 7.325,-3.288 3.29,-4.395 0.817,-8.353 -2.716,-11.125 3.553,0.356 7.664,3.877 7.822,6.861 C 9.774,-2.919 4.087,-1.149 0,0"
             inkscape:connector-curvature="0" /></g><g
           transform="translate(289.345,368.4236)"
           id="g180"><path
             id="path182"
             style="fill:#cfc0b1;fill-opacity:1;fill-rule:nonzero;stroke:none"
             d="m 0,0 c 0.827,2.875 0.254,7.088 -2.2,9.101 -3.468,2.842 -6.23,-0.142 -6.286,-3.685 -0.007,-0.422 0.011,-0.84 0.03,-1.258 0.44,-2.039 1.147,-4.03 2.406,-5.26 1.79,-1.739 4.083,-1.039 6.013,0.655 C -0.056,-0.311 -0.047,-0.163 0,0"
             inkscape:connector-curvature="0" /></g><g
           transform="translate(287.1451,377.5247)"
           id="g184"><path
             id="path186"
             style="fill:#9c8e84;fill-opacity:1;fill-rule:nonzero;stroke:none"
             d="m 0,0 c -2.401,1.966 -4.457,1.139 -5.519,-0.729 1.39,1.355 4.429,1.13 5.538,-0.562 0.407,-0.62 1.631,-2.804 0.68,-3.483 -0.296,-0.214 -0.682,0.11 -0.961,0.227 -0.015,-0.271 -0.005,-0.556 -0.019,-0.829 -0.234,-0.014 -0.482,-0.005 -0.717,-0.018 -0.049,-0.42 0.453,-0.488 0.359,-0.912 -0.098,-0.447 -0.515,-0.298 -0.616,-0.799 -0.099,-0.489 0.076,-0.534 -0.292,-0.996 -0.254,-0.318 -0.617,-0.613 -0.828,-0.956 -0.361,-0.595 -0.328,-1.522 0.445,-1.798 0.599,-0.215 1.669,-0.365 2.267,-0.109 0.255,0.109 1.846,1.275 1.826,1.416 C 2.144,-9.413 2.152,-9.264 2.2,-9.101 3.027,-6.227 2.453,-2.013 0,0"
             inkscape:connector-curvature="0" /></g><g
           transform="translate(326.3046,367.322)"
           id="g188"><path
             id="path190"
             style="fill:#7a9c9c;fill-opacity:1;fill-rule:nonzero;stroke:none"
             d="m 0,0 c -3.465,-3.371 -11.062,1.729 -11.277,5.806 -0.271,5.17 5.416,6.94 9.502,8.088 3.7,1.044 5.341,0.03 4.904,-3.786 C 2.789,7.135 2.326,2.268 0,0"
             inkscape:connector-curvature="0" /></g><g
           transform="translate(324.5298,381.2165)"
           id="g192"><path
             id="path194"
             style="fill:#8cb0b3;fill-opacity:1;fill-rule:nonzero;stroke:none"
             d="m 0,0 c 3.472,0.979 5.133,0.145 4.959,-3.124 -0.411,1.017 -0.671,2.258 -2.034,2.588 -2.294,0.552 -5.971,-1.484 -7.321,-3.288 -3.291,-4.395 -0.818,-8.353 2.715,-11.125 -3.553,0.356 -7.664,3.877 -7.821,6.861 C -9.774,-2.919 -4.087,-1.149 0,0"
             inkscape:connector-curvature="0" /></g><g
           transform="translate(320.2558,368.4236)"
           id="g196"><path
             id="path198"
             style="fill:#cfc0b1;fill-opacity:1;fill-rule:nonzero;stroke:none"
             d="M 0,0 C -0.831,2.875 -0.255,7.088 2.2,9.101 5.665,11.943 8.43,8.959 8.483,5.416 8.491,4.994 8.474,4.576 8.456,4.158 8.013,2.119 7.309,0.128 6.049,-1.102 4.259,-2.841 1.967,-2.141 0.036,-0.447 0.055,-0.311 0.046,-0.163 0,0"
             inkscape:connector-curvature="0" /></g><g
           transform="translate(322.4557,377.5247)"
           id="g200"><path
             id="path202"
             style="fill:#9c8e84;fill-opacity:1;fill-rule:nonzero;stroke:none"
             d="m 0,0 c 2.4,1.966 4.457,1.139 5.519,-0.729 -1.39,1.355 -4.429,1.13 -5.54,-0.562 -0.406,-0.62 -1.629,-2.804 -0.681,-3.483 0.299,-0.214 0.685,0.11 0.964,0.227 0.012,-0.271 0.005,-0.556 0.018,-0.829 0.235,-0.014 0.482,-0.005 0.718,-0.018 0.049,-0.42 -0.457,-0.488 -0.36,-0.912 0.099,-0.447 0.516,-0.298 0.616,-0.799 0.1,-0.489 -0.075,-0.534 0.292,-0.996 0.254,-0.318 0.618,-0.613 0.827,-0.956 0.363,-0.595 0.329,-1.522 -0.443,-1.798 -0.599,-0.215 -1.669,-0.365 -2.27,-0.109 -0.254,0.109 -1.843,1.275 -1.824,1.416 0.019,0.135 0.01,0.284 -0.036,0.447 C -3.03,-6.227 -2.455,-2.013 0,0"
             inkscape:connector-curvature="0" /></g><g
           transform="translate(330.2681,350.8595)"
           id="g204"><path
             id="path206"
             style="fill:#8cb0b3;fill-opacity:1;fill-rule:nonzero;stroke:none"
             d="m 0,0 c -0.143,1.674 -0.832,3.429 -1.317,5.186 -1.514,5.477 -3.64,11.141 -7.197,15.431 -2.95,3.558 -6.724,4.384 -10.849,5.046 -3.007,0.481 -9.59,0.4 -12.272,0 -4.134,-0.618 -7.898,-1.488 -10.849,-5.046 -3.559,-4.29 -5.682,-9.954 -7.196,-15.431 -0.487,-1.757 -1.172,-3.512 -1.316,-5.186 -0.126,-1.442 0.156,-2.826 1.32,-4.102 3.272,-3.601 7.331,-5.178 11.526,-5.857 3.217,-0.52 8.97,-3.534 12.651,-3.321 3.682,-0.213 9.434,2.801 12.651,3.321 4.197,0.679 8.252,2.256 11.527,5.857 C -0.157,-2.826 0.124,-1.442 0,0"
             inkscape:connector-curvature="0" /></g><g
           transform="translate(290.6156,369.1379)"
           id="g208"><path
             id="path210"
             style="fill:#9bbabc;fill-opacity:1;fill-rule:nonzero;stroke:none"
             d="M 0,0 C -0.849,-1.176 -1.308,-2.539 -1.028,-4.043 -0.373,-7.584 2.676,-7.169 5.462,-7.486 10.105,-8.013 34.237,-13.8 29.5,-1.557 27.506,3.595 21.486,5.439 16.616,5.672 12.549,5.866 9.123,5.386 5.289,3.851 3.441,3.11 1.279,1.77 0,0"
             inkscape:connector-curvature="0" /></g><g
           transform="translate(330.2681,350.8595)"
           id="g212"><path
             id="path214"
             style="fill:#768f8f;fill-opacity:1;fill-rule:nonzero;stroke:none"
             d="m 0,0 c -0.143,1.674 -0.832,3.429 -1.317,5.186 -1.514,5.477 -3.64,11.141 -7.197,15.431 -0.209,0.255 -0.432,0.464 -0.65,0.69 1.796,-3.132 3.54,-7.94 2.426,-11.575 -2.481,-8.079 -12.594,-8.197 -19.366,-6.8 -3.98,0.821 -7.734,2.205 -11.61,3.364 -2.142,0.639 -6.711,1.49 -7.376,4.169 -0.725,2.91 0.439,6.69 1.965,9.308 -3.167,-4.176 -5.136,-9.457 -6.555,-14.587 -0.487,-1.757 -1.172,-3.512 -1.316,-5.186 -0.126,-1.442 0.156,-2.826 1.32,-4.102 3.272,-3.601 7.331,-5.178 11.526,-5.857 3.217,-0.52 8.97,-3.534 12.651,-3.321 3.682,-0.213 9.434,2.801 12.651,3.321 4.197,0.679 8.252,2.256 11.527,5.857 C -0.157,-2.826 0.124,-1.442 0,0"
             inkscape:connector-curvature="0" /></g><g
           transform="translate(330.8544,350.9117)"
           id="g216"><path
             id="path218"
             style="fill:#f2ede0;fill-opacity:1;fill-rule:nonzero;stroke:none"
             d="m 0,0 c 0.588,0.325 1.34,0.596 1.734,1.185 -0.2,0.323 -0.468,0.435 -0.735,0.68 -0.843,0.766 -2.361,1.218 -3.308,1.932 -1.183,0.887 -2.283,1.994 -3.197,3.137 -1.461,1.822 -2.39,4.298 -4.174,5.858 -2.685,2.348 -6.261,5.067 -10.053,3.881 -2.155,-0.675 -3.243,-2.869 -5.511,-3.281 -1.746,-0.315 -4.072,0.205 -5.624,1.054 -1.347,0.735 -2.182,1.749 -3.832,1.964 -3.175,0.417 -6.342,-1.441 -8.382,-3.743 -2.545,-2.875 -5.106,-5.724 -7.854,-8.431 -1.106,-1.093 -2.644,-3.008 -4.111,-3.52 0.679,-0.48 1.356,-1.386 2.267,-1.584 -0.397,-0.512 -0.933,-1.026 -0.973,-1.667 0.604,0.044 1.252,-0.071 1.831,-0.187 -0.187,-0.655 -1.406,-1.18 -1.533,-1.882 -0.236,-1.338 0.849,-0.128 1.531,-0.856 0.231,-0.25 -0.23,-0.835 -0.132,-0.978 0.317,-0.46 0.439,-0.375 0.872,-0.719 1.821,-1.443 4.672,-1.927 6.851,-2.373 3.765,-0.775 6.976,-2.814 10.544,-4.235 2.153,-0.86 4.424,-1.762 6.752,-1.873 2.723,-0.129 4.183,0.373 6.472,1.583 2.145,1.132 4.743,2.48 7.184,3.019 1.906,0.425 3.609,1.107 5.545,1.506 0.833,0.17 1.956,0.095 2.732,0.485 1.129,0.566 1.291,1.517 2.566,1.963 1.091,0.383 2.145,0.317 2.536,1.65 0.132,0.454 -0.366,0.594 -0.047,1.189 0.15,0.278 0.97,0.554 1.211,0.828 -0.228,0.152 -0.413,0.571 -0.614,0.717 1.789,0.927 -0.132,1.789 -0.723,2.596 C -0.118,-0.068 -0.061,-0.033 0,0"
             inkscape:connector-curvature="0" /></g><g
           transform="translate(321.2523,363.6272)"
           id="g220"><path
             id="path222"
             style="fill:#fcf9f1;fill-opacity:1;fill-rule:nonzero;stroke:none"
             d="m 0,0 c -0.027,0.025 -0.05,0.053 -0.077,0.077 -2.685,2.347 -6.262,5.066 -10.054,3.881 -2.155,-0.676 -3.243,-2.869 -5.511,-3.282 -1.746,-0.314 -4.072,0.206 -5.624,1.054 -1.347,0.735 -2.182,1.75 -3.832,1.965 -3.175,0.416 -6.341,-1.441 -8.382,-3.744 -0.322,-0.363 -0.646,-0.725 -0.969,-1.088 -0.079,-0.415 -0.059,-0.848 0.158,-1.308 0.481,-1.021 2.145,-1.164 3.118,-1.022 1.013,0.148 1.829,0.904 2.75,1.315 2.323,1.043 4.082,1.351 6.19,-0.37 2.459,-2.006 5.295,-4.456 8.591,-2.545 0.905,0.526 1.831,1.348 2.453,2.191 0.472,0.637 0.735,1.307 1.628,1.458 1.481,0.25 2.765,-1.344 4.172,-1.605 C -3.043,-3.46 0.95,-2.851 0,0"
             inkscape:connector-curvature="0" /></g><g
           transform="translate(311.6287,348.3863)"
           id="g224"><path
             id="path226"
             style="fill:#fcf9f1;fill-opacity:1;fill-rule:nonzero;stroke:none"
             d="m 0,0 c -0.486,0.541 -1.156,1 -2.014,1.348 -1.54,0.618 -3.27,0.623 -4.905,0.694 -3.641,0.159 -9.266,-1.233 -7.827,-6.154 0.956,-3.269 5.538,-4.347 8.49,-4.347 2.11,0 4.123,0.344 5.594,1.989 C 1.259,-4.325 1.583,-1.748 0,0"
             inkscape:connector-curvature="0" /></g><g
           id="g228"><g
             id="g230" /><g
             id="g242"><g
               style="opacity:0.44000202"
               id="g240"
               clip-path="url(#clipPath234)"><g
                 id="g238"
                 transform="translate(332.5888,352.0962)"><path
                   id="path236"
                   style="fill:#d9d4c6;fill-opacity:1;fill-rule:nonzero;stroke:none"
                   d="m 0,0 c -0.201,0.324 -0.469,0.435 -0.736,0.68 -0.842,0.767 -2.361,1.219 -3.307,1.932 -0.788,0.591 -1.534,1.284 -2.22,2.017 0.2,-0.813 0.344,-1.618 0.399,-2.37 0.017,-0.243 -0.189,-0.501 -0.423,-0.553 -0.122,-0.021 -0.24,-0.052 -0.354,-0.081 0.137,0.026 0.542,-1.522 0.58,-1.661 0.222,-0.791 0.282,-1.578 1.117,-1.973 0.011,-0.117 0,-0.231 0.001,-0.345 -0.373,-0.19 -0.798,-0.144 -1.103,0.139 0.271,-0.25 0.315,-1.253 0.075,-1.504 -0.392,-0.411 -1.378,-0.113 -1.874,-0.272 -0.091,-0.541 0.262,-0.903 0.182,-1.314 0.064,0.325 -0.499,-0.537 -0.457,-0.469 -0.019,-0.03 0.074,-0.628 0.059,-0.741 -1.816,-0.231 -3.672,-0.127 -5.478,-0.4 -1.871,-0.28 -3.735,-0.836 -5.286,-1.956 -2.254,-1.627 -4.205,-3.888 -7.125,-4.226 -3.324,-0.386 -6.452,0.97 -9.406,2.295 -1.594,0.714 -3.181,1.455 -4.723,2.313 -1.468,0.813 -2.792,1.833 -4.517,1.704 -1.745,-0.13 -3.556,-0.075 -5.205,0.653 0.114,0.534 0.621,0.751 0.448,1.354 -0.162,0.566 -0.851,0.54 -1.085,0.964 -0.158,0.285 0.523,2.607 0.23,2.562 -0.273,-0.045 -0.595,0.091 -0.825,0.104 0.183,0.26 0.196,0.563 0.26,0.841 -0.332,0.009 -0.679,0.02 -1.011,0.03 0.13,0.897 1.655,1.265 1.387,2.339 -0.352,-0.13 -0.721,-0.203 -1.105,-0.166 -0.044,0.934 0.465,2.255 0.776,3.124 -0.639,-0.662 -1.286,-1.32 -1.945,-1.968 -1.106,-1.093 -2.644,-3.009 -4.11,-3.521 0.679,-0.479 1.356,-1.386 2.267,-1.583 -0.398,-0.512 -0.933,-1.027 -0.974,-1.667 0.605,0.044 1.252,-0.071 1.831,-0.188 -0.186,-0.655 -1.406,-1.179 -1.533,-1.881 -0.235,-1.339 0.85,-0.129 1.532,-0.857 0.23,-0.249 -0.23,-0.835 -0.132,-0.977 0.317,-0.461 0.439,-0.375 0.872,-0.72 1.821,-1.443 4.672,-1.926 6.85,-2.373 3.765,-0.774 6.977,-2.814 10.544,-4.234 2.153,-0.86 4.424,-1.762 6.753,-1.874 2.723,-0.129 4.182,0.373 6.471,1.584 2.146,1.131 4.744,2.479 7.185,3.019 1.906,0.424 3.608,1.107 5.544,1.505 0.833,0.17 1.956,0.096 2.733,0.485 1.129,0.567 1.29,1.518 2.566,1.963 1.091,0.383 2.144,0.317 2.535,1.65 0.133,0.454 -0.366,0.594 -0.046,1.189 0.15,0.278 0.97,0.555 1.211,0.828 -0.228,0.152 -0.413,0.572 -0.615,0.718 1.79,0.927 -0.131,1.789 -0.722,2.596 0.056,0.034 0.114,0.068 0.175,0.101 C -1.147,-0.86 -0.394,-0.589 0,0"
                   inkscape:connector-curvature="0" /></g></g></g></g><g
           transform="translate(332.5888,352.0962)"
           id="g244" /><g
           transform="translate(303.8178,350.6636)"
           id="g248"><path
             id="path250"
             style="fill:#7b4432;fill-opacity:1;fill-rule:nonzero;stroke:none"
             d="m 0,0 c -0.484,-0.062 -0.966,-0.199 -1.338,-0.488 -0.832,-0.638 -0.897,-1.563 -0.312,-2.384 0.521,-0.728 1.159,-1.563 1.96,-2.01 0.842,-0.471 1.714,0.302 2.235,0.892 0.5,0.57 1.068,1.213 1.32,1.94 C 4.39,-0.546 1.966,0.003 0.92,0.035 0.627,0.044 0.311,0.038 0,0"
             inkscape:connector-curvature="0" /></g><g
           transform="translate(307.101,350.0331)"
           id="g252"><path
             id="path254"
             style="fill:#572e2e;fill-opacity:1;fill-rule:nonzero;stroke:none"
             d="m 0,0 c 0.009,-0.375 -0.049,-0.759 -0.194,-1.116 -0.588,-1.443 -2.308,-2.013 -3.719,-1.46 -0.658,0.26 -1.156,0.761 -1.399,1.348 0.017,-0.337 0.144,-0.682 0.379,-1.013 0.521,-0.729 1.158,-1.564 1.96,-2.01 0.842,-0.471 1.714,0.302 2.235,0.891 0.5,0.571 1.067,1.214 1.32,1.941 C 0.801,-0.788 0.498,-0.327 0,0"
             inkscape:connector-curvature="0" /></g><g
           transform="translate(304.1031,349.0959)"
           id="g256"><path
             id="path258"
             style="fill:#ffffff;fill-opacity:1;fill-rule:nonzero;stroke:none"
             d="M 0,0 C 0.284,0.054 0.563,0.109 0.811,0.12 1.053,0.128 2.072,0.081 2.228,0.351 2.668,1.095 0.435,1.212 0.1,1.143 -0.272,1.068 -0.713,0.926 -1.06,0.773 -1.378,0.627 -1.654,0.074 -1.143,-0.054 -0.801,-0.142 -0.396,-0.076 0,0"
             inkscape:connector-curvature="0" /></g><g
           transform="translate(302.759,356.2296)"
           id="g260"><path
             id="path262"
             style="fill:#5d6565;fill-opacity:1;fill-rule:nonzero;stroke:none"
             d="m 0,0 c -0.259,-1.163 -0.996,-2.111 -2.445,-2.458 -1.3,-0.307 -2.56,-0.218 -3.856,-0.722 -1.679,-0.652 -3.193,-1.802 -4.697,-2.774 -1.925,-1.245 -5.954,-5.423 -7.72,-1.771 -2.044,4.229 1.852,8.823 4.592,11.665 3.422,3.549 8.649,6.501 12.525,1.876 C -0.457,4.452 0.429,1.93 0,0"
             inkscape:connector-curvature="0" /></g><g
           transform="translate(305.429,356.2296)"
           id="g264"><path
             id="path266"
             style="fill:#5d6565;fill-opacity:1;fill-rule:nonzero;stroke:none"
             d="m 0,0 c 0.258,-1.163 0.996,-2.111 2.447,-2.458 1.299,-0.307 2.559,-0.218 3.855,-0.722 1.679,-0.652 3.193,-1.802 4.696,-2.774 1.925,-1.245 5.954,-5.423 7.719,-1.771 2.045,4.229 -1.85,8.823 -4.589,11.665 C 10.704,7.489 5.477,10.441 1.602,5.816 0.457,4.452 -0.427,1.93 0,0"
             inkscape:connector-curvature="0" /></g><g
           transform="translate(293.988,360.762)"
           id="g268"><path
             id="path270"
             style="fill:#1d1d1d;fill-opacity:1;fill-rule:nonzero;stroke:none"
             d="M 0,0 C -1.024,-0.373 -1.604,-1.787 -1.301,-3.164 -0.994,-4.539 0.084,-5.35 1.103,-4.98 2.126,-4.607 2.707,-3.191 2.401,-1.817 2.097,-0.439 1.019,0.371 0,0"
             inkscape:connector-curvature="0" /></g><g
           transform="translate(293.4839,359.0916)"
           id="g272"><path
             id="path274"
             style="fill:#ffffff;fill-opacity:1;fill-rule:nonzero;stroke:none"
             d="M 0,0 C -0.192,-0.069 -0.283,-0.413 -0.207,-0.76 -0.13,-1.113 0.091,-1.339 0.281,-1.269 0.47,-1.202 0.563,-0.86 0.488,-0.507 0.413,-0.16 0.191,0.07 0,0"
             inkscape:connector-curvature="0" /></g><g
           transform="translate(313.2817,360.762)"
           id="g276"><path
             id="path278"
             style="fill:#1d1d1d;fill-opacity:1;fill-rule:nonzero;stroke:none"
             d="M 0,0 C -1.019,-0.373 -1.6,-1.787 -1.296,-3.164 -0.992,-4.539 0.085,-5.35 1.105,-4.98 2.128,-4.607 2.709,-3.191 2.404,-1.817 2.099,-0.439 1.022,0.371 0,0"
             inkscape:connector-curvature="0" /></g><g
           transform="translate(312.7792,359.0916)"
           id="g280"><path
             id="path282"
             style="fill:#ffffff;fill-opacity:1;fill-rule:nonzero;stroke:none"
             d="m 0,0 c -0.193,-0.069 -0.284,-0.413 -0.206,-0.76 0.079,-0.353 0.298,-0.579 0.487,-0.509 0.192,0.067 0.284,0.409 0.207,0.762 C 0.409,-0.16 0.192,0.07 0,0"
             inkscape:connector-curvature="0" /></g><g
           transform="translate(307.5743,344.8274)"
           id="g284"><path
             id="path286"
             style="fill:#953026;fill-opacity:1;fill-rule:nonzero;stroke:none"
             d="m 0,0 c 0.079,0.171 0.144,0.346 0.194,0.521 0,-0.37 0.021,-0.738 0.039,-1.099 0.048,-0.992 -0.124,-2.279 -0.883,-2.97 -1.024,-0.931 -2.568,-0.748 -3.67,-0.066 -0.442,0.273 -1.57,1.275 -1.502,1.842 0.38,-0.129 0.758,-0.333 1.18,-0.4 0.696,-0.109 1.695,-0.133 2.365,0.08 C -1.315,-1.786 -0.44,-0.956 0,0"
             inkscape:connector-curvature="0" /></g><g
           transform="translate(311.5758,291.5664)"
           id="g288" /><g
           transform="translate(318.1176,268.5787)"
           id="g292" /><g
           id="g296"><g
             id="g298" /><g
             id="g310"><g
               style="opacity:0.44999701"
               id="g308"
               clip-path="url(#clipPath302)"><g
                 id="g306"
                 transform="translate(332.1148,306.4297)" /></g></g></g><g
           transform="translate(310.4047,334.7724)"
           id="g312" /><g
           transform="translate(300.7361,317.387)"
           id="g316" /><g
           id="g320"><g
             id="g322" /><g
             id="g334"><g
               style="opacity:0.44999701"
               id="g332"
               clip-path="url(#clipPath326)"><g
                 id="g330"
                 transform="translate(319.4016,328.2938)" /></g></g></g><g
           transform="translate(319.4016,328.2938)"
           id="g336" /><g
           transform="translate(293.2777,307.4553)"
           id="g340" /><g
           transform="translate(294.0845,307.1471)"
           id="g344" /></g></g></g></svg>