<svg version="1.1" viewBox="0.0 0.0 512.4199475065617 568.6955380577427" fill="none" stroke="none" stroke-linecap="square" stroke-miterlimit="10" xmlns:xlink="http://www.w3.org/1999/xlink" xmlns="http://www.w3.org/2000/svg"><clipPath id="p.0"><path d="m0 0l512.4199 0l0 568.69556l-512.4199 0l0 -568.69556z" clip-rule="nonzero"/></clipPath><g clip-path="url(#p.0)"><path fill="#000000" fill-opacity="0.0" d="m0 0l512.4199 0l0 568.69556l-512.4199 0z" fill-rule="evenodd"/><path fill="#ffffff" d="m0 293.2651l0 0c0 -140.376 114.19912 -254.17325 255.07086 -254.17325l0 0c67.64902 0 132.52728 26.778889 180.36234 74.44562c47.835083 47.666733 74.70853 112.31668 74.70853 179.72763l0 0c0 140.37598 -114.1991 254.17319 -255.07086 254.17319l0 0c-140.87173 0 -255.07086 -113.79721 -255.07086 -254.17319z" fill-rule="evenodd"/><path stroke="#ffffff" stroke-width="1.0" stroke-linejoin="round" stroke-linecap="butt" d="m0 293.2651l0 0c0 -140.376 114.19912 -254.17325 255.07086 -254.17325l0 0c67.64902 0 132.52728 26.778889 180.36234 74.44562c47.835083 47.666733 74.70853 112.31668 74.70853 179.72763l0 0c0 140.37598 -114.1991 254.17319 -255.07086 254.17319l0 0c-140.87173 0 -255.07086 -113.79721 -255.07086 -254.17319z" fill-rule="evenodd"/></g></svg>